<svg xmlns="http://www.w3.org/2000/svg" width="256" height="256"><path fill-opacity=".016" d="M0 128.004v128.004l128.25-.254 128.25-.254.254-127.75L257.008 0H0v128.004m.485.496c0 70.4.119 99.053.265 63.672.146-35.38.146-92.98 0-128C.604 29.153.485 58.1.485 128.5" fill="#080f08" fill-rule="evenodd"/><path fill-opacity=".394" d="m111 .917-7.5.583-.286 10.986c-.158 6.043-.663 11.363-1.123 11.823-.461.461-2.582-1.296-4.714-3.904-2.132-2.607-6.068-6.476-8.746-8.596-4.086-3.235-5.117-3.651-6.406-2.582-2.52 2.088-9.156 16.769-9.81 21.705-.547 4.118-.988 4.748-4.327 6.173l-3.717 1.588-8.212-7.346C51.643 27.306 47.339 24 46.593 24c-1.25 0-25.655 25.962-26.441 28.128-.933 2.572 1.416 5.921 8.193 11.683l7.424 6.311-2.991 6.176C29.32 83.435 23 101.819 23 104.737c0 1.647-.893 2.092-5.25 2.615-2.887.347-7.062.635-9.277.639-2.216.005-5.028.71-6.25 1.566C.064 111.069 0 111.638 0 129.357c0 12.856.354 18.597 1.2 19.443.786.786 5.009 1.206 12.25 1.216l11.05.016 2.5 7.709c1.375 4.24 4.855 12.593 7.733 18.561l5.234 10.852-6.474 7.673c-3.56 4.22-6.477 8.594-6.483 9.721-.011 2.331 25.756 28.45 28.073 28.455.779.002 4.686-3.459 8.682-7.692l7.266-7.695 5.234 2.321c2.879 1.277 9.784 3.906 15.343 5.842l10.108 3.521.592 10.466c.435 7.669 1.032 10.952 2.235 12.281 1.484 1.64 3.648 1.818 22.484 1.847 26.015.04 24.982.56 25.713-12.946.281-5.196.831-10.048 1.222-10.781.391-.733 4.027-2.45 8.08-3.815 4.053-1.365 10.623-3.985 14.601-5.822l7.231-3.342 7.086 7.406c4.686 4.899 7.844 7.406 9.327 7.406 3.074 0 27.713-24.635 27.713-27.708 0-1.232-2.817-5.496-6.475-9.8l-6.476-7.62 4.035-7.917c2.218-4.355 5.776-12.539 7.906-18.186l3.873-10.269 10.759-.286c5.918-.157 11.348-.775 12.069-1.372.72-.598 1.354-2.269 1.409-3.714l.099-2.628.801 2.5c.462 1.442.809-5.541.821-16.5.012-10.45-.196-18.466-.462-17.812-.333.817-1.056.615-2.321-.65-1.398-1.398-4.128-2.008-11.448-2.557-9.335-.7-9.628-.796-10.167-3.351-1.282-6.073-6.827-21.988-9.52-27.322-1.597-3.163-2.903-6.112-2.903-6.554 0-.442 3.375-3.676 7.5-7.188 9.748-8.298 9.796-9.378.852-19.237C215.493 29.651 209.785 24 208.326 24c-.811 0-4.029 2.368-7.15 5.263-10.472 9.709-9.358 9.169-15.037 7.283-4.655-1.546-5.026-1.919-5.663-5.691-.833-4.925-7.641-18.79-10.498-21.375-2.035-1.842-2.154-1.841-5.74.07-2.013 1.072-6.488 4.587-9.944 7.809-3.886 3.624-6.844 5.644-7.754 5.295-1.144-.439-1.535-2.969-1.756-11.359L144.5.5l-13-.083c-7.15-.046-16.375.179-20.5.5M84.095 23.823c-.572 1.069-1.516 5.034-2.098 8.811-.995 6.465-.88 7.388 1.973 15.804C87.578 59.081 87.648 60 84.845 60c-2.097 0-2.106.054-.331 2.015 1.003 1.108 3.547 2.291 5.655 2.628 3.67.587 3.831.774 3.831 4.453 0 2.782.366 3.701 1.328 3.332.73-.28 2.467-.076 3.86.453 2.323.884 2.498 1.365 2.106 5.791-.41 4.627-.279 4.922 3.14 7.088 1.962 1.242 4.884 4.077 6.493 6.298 5.351 7.387 5.884 12.717 8.019 80.28 1.366 43.191 2.309 62.264 3.127 63.25.645.777 1.915 1.412 2.824 1.412 1.527 0 1.623-7.516 1.266-99.714-.212-54.842-.757-100.63-1.211-101.75-.795-1.961-.828-1.953-.889.214-.075 2.669-.785 2.811-3.187.638-1.661-1.503-1.826-1.435-2.437 1-.769 3.064-2.347 3.317-4.998.799-1.86-1.766-1.949-1.694-3.425 2.75-.834 2.51-2.001 4.563-2.593 4.563-.592 0-5.317-5.144-10.5-11.43-5.183-6.287-9.955-11.602-10.605-11.811-.651-.209-1.651.494-2.223 1.564m75.972 12.243c-1.797 2.237-3.11 4.166-2.917 4.287.192.121 2.296 1.526 4.675 3.122 4.795 3.216 6.13 2.615 6.16-2.775.016-2.992-2.505-8.7-3.843-8.7-.444 0-2.278 1.83-4.075 4.066m-31.29 29.257c.263 29.812.378 31.507 2.25 33.202 2.606 2.358 2.592 7.605-.027 9.975-1.869 1.692-2 3.08-2 21.245 0 18.726.079 19.498 2.167 21.189 1.433 1.16 2.166 2.876 2.166 5.066s-.733 3.906-2.166 5.066c-2.106 1.705-2.167 2.385-2.167 24.237 0 19.062.228 22.571 1.5 23.059.858.329 1.5 1.821 1.5 3.484 0 1.6-.675 3.469-1.5 4.154-1.145.951-1.5 3.547-1.5 10.984v9.739l2.42-.463c2.041-.39 2.506-1.191 2.971-5.111.302-2.557 1.061-30.074 1.687-61.149.981-48.766 1.392-57.624 3.001-64.709 3.323-14.634 9.39-25.737 20.375-37.291 3.399-3.575 7.375-8.141 8.836-10.148l2.656-3.647-4.223-3.889c-7.678-7.07-22.452-13.876-34.223-15.766l-4-.642.277 31.415m9.58-15.331c-2.805 1.132-5.357 4.851-5.357 7.807 0 3.087 5.169 8.201 8.288 8.201 3.214 0 7.351-3.333 7.936-6.393.681-3.563-1.741-8.473-4.744-9.615-3.028-1.151-3.272-1.151-6.123 0M.417 129.5c.001 10.45.149 14.589.329 9.198.18-5.391.179-13.941-.002-19-.181-5.059-.328-.648-.327 9.802m98.606-11.306c-.021 2.485 4.291 8.946 5.21 7.806.221-.275-.855-2.75-2.392-5.5-2.477-4.433-2.797-4.694-2.818-2.306" fill="#080f08" fill-rule="evenodd"/><path fill-opacity=".428" d="M117.062.783c-6.339.157-12.022.769-12.75 1.373-.936.776-1.312 4.209-1.312 11.966 0 5.983-.368 10.878-.818 10.878-.45 0-4.459-3.641-8.909-8.091-5.253-5.253-8.715-7.97-9.87-7.748-2.386.459-9.108 13.804-10.608 21.058-1.103 5.333-1.448 5.825-5.118 7.294l-3.936 1.574-7.336-7.113c-5.63-5.46-7.896-7.039-9.745-6.794C43.738 25.568 20 51.243 20 54.015c0 1.008 3.527 5.007 7.888 8.945l7.887 7.122-3.834 8.709C29.832 83.581 26.818 92 25.243 97.5l-2.865 10-9.781.642c-5.379.353-10.151 1.028-10.603 1.5-.453.472-.974 9.312-1.158 19.644C.552 145.15.733 148.22 2 149.021c.825.522 6.225.958 12 .97l10.5.021 3.353 9.244c1.844 5.084 5.375 13.413 7.846 18.509l4.493 9.265-6.596 8.075c-3.628 4.441-6.596 8.783-6.596 9.649C27 207.189 52.02 232 54.476 232c1.25 0 4.995-2.941 9.426-7.401l7.352-7.401 6.623 2.987c3.643 1.642 10.448 4.276 15.123 5.852l8.5 2.865 1 11.01c.581 6.394 1.54 11.545 2.289 12.288 1.85 1.834 43.568 1.837 45.422.003.751-.742 1.707-5.893 2.289-12.333l1-11.058 9.5-3.276c5.225-1.801 11.975-4.449 15-5.884l5.5-2.609 7.522 7.479c4.397 4.371 8.364 7.478 9.55 7.478C203.1 232 228 207.09 228 204.561c0-.973-2.942-5.295-6.537-9.606l-6.538-7.838 4.921-10.308c2.707-5.67 6.211-14.02 7.788-18.556l2.866-8.248 11.215-.002c9.908-.003 11.331-.22 12.21-1.863.548-1.023 1.077-9.652 1.178-19.176.177-16.864.123-17.363-2.072-19.14-1.637-1.326-4.067-1.851-8.892-1.924-10.868-.163-11.268-.42-13.313-8.543-.979-3.892-3.632-11.528-5.895-16.967-2.262-5.44-4.324-10.578-4.581-11.419-.297-.971 2.285-4.002 7.091-8.32 5.073-4.558 7.552-7.509 7.538-8.971-.032-3.231-23.464-28.68-26.406-28.68-1.39 0-5.166 2.655-9.853 6.927l-7.598 6.926-4.7-1.784c-4.641-1.762-4.735-1.887-7.445-9.965C176.372 19.34 169.942 8 168.145 8c-1.941 0-13.127 8.084-15.771 11.398-1.769 2.217-3.739 3.602-5.124 3.602-2.189 0-2.25-.282-2.25-10.378 0-7.742-.36-10.676-1.419-11.555-.875-.726-4.042-1.061-8.25-.872-3.757.168-11.978.433-18.269.588m.438 2.148-12 .569-.286 10.941c-.157 6.017-.712 11.454-1.233 12.082-.615.741-.438 1.814.504 3.059 1.382 1.826 1.453 1.785 1.483-.852l.032-2.771 3.979 2.03 3.978 2.03.63-2.51c.733-2.919 1.214-3.037 4.109-1.009 2.336 1.636 4.836 1.163 5.695-1.077.994-2.589 2.344-1.479 2.971 2.44.585 3.655.846 3.894 4.878 4.46 2.343.329 5.688.89 7.434 1.247 2.945.603 3.323.357 5.25-3.42 2.529-4.958 2.526-4.799.111-5.431-1.778-.465-1.992-1.547-2.25-11.366L142.5 2.5l-6.5-.069c-3.575-.038-11.9.187-18.5.5M84.097 22.818c-.59 1.103-1.621 5.198-2.29 9.099-1.17 6.823-1.104 7.427 1.73 15.838 1.62 4.81 3.087 9.269 3.261 9.91.174.64-.699 1.486-1.94 1.88l-2.256.716 2.755 2.37C86.906 63.963 89.4 65 91.056 65c2.76 0 2.944.246 2.944 3.937 0 3.71.187 3.954 3.25 4.25 3.202.308 3.246.382 2.963 4.942-.281 4.513-.164 4.719 4.635 8.166 6.568 4.719 9.859 11.454 11.109 22.734.516 4.659 1.675 34.346 2.575 65.971.9 31.625 2.011 58.453 2.47 59.618.467 1.185 2.037 2.347 3.565 2.64l2.731.522-.556-100.14c-.362-65.114-.916-101.014-1.586-102.64-1-2.429-1.031-2.436-1.093-.25-.075 2.662-1.698 2.89-4.234.595-1.735-1.57-1.829-1.493-1.829 1.5 0 3.678-.792 3.893-4.273 1.155-3.292-2.59-3.727-2.524-3.727.566 0 2.927-1.627 6.434-2.986 6.434-.504 0-4.483-4.388-8.843-9.75-4.361-5.363-9.069-10.805-10.464-12.094-2.504-2.314-2.55-2.318-3.61-.338m-47.4 14.432c-5.209 5.638-10.692 11.72-12.186 13.516l-2.715 3.265 3.852 3.761c2.119 2.068 6.048 5.657 8.732 7.975 3.722 3.214 4.625 4.523 3.802 5.513-2.136 2.575-8.386 18.426-11.125 28.22l-2.797 10-9.901.55c-5.446.302-10.454.891-11.13 1.309-1.564.966-1.736 31.825-.194 34.707C3.964 147.802 5.221 148 15.3 148h11.231l1.828 5.25c2.984 8.567 10.758 26.705 11.695 27.283.477.295-.306-2.025-1.739-5.156-2.536-5.539-2.555-5.729-.71-7.105 1.042-.777 1.778-1.844 1.636-2.37-.143-.527.42-1.218 1.25-1.537.83-.318 1.509-1.206 1.509-1.972S42.45 161 43 161s1-.627 1-1.393.704-1.663 1.563-1.993c.86-.33 1.282-1.056.937-1.614s.077-1.284.937-1.614c.859-.33 1.563-1.227 1.563-1.993S49.45 151 50 151s1-.627 1-1.393.679-1.654 1.509-1.972c.83-.319 1.434-.929 1.342-1.357-.093-.428.196-1.618.642-2.645.729-1.679.949-1.578 2.174 1 .75 1.577 1.102 1.967.783.867-3.737-12.873-4.762-34.568-1.844-39.022 1.504-2.295 1.468-2.688-.571-6.143-2.098-3.555-2.116-3.828-.508-7.395 1.254-2.782 1.407-4.194.614-5.676-.872-1.63-.542-2.463 1.902-4.805C58.669 80.901 60 79.135 60 78.535c0-.6.949-1.903 2.108-2.896 1.599-1.369 1.967-2.516 1.52-4.749-.508-2.541-.147-3.205 2.642-4.857C72.042 62.612 72 62.729 72 50.012v-11.91l-3.468 1.449C66.625 40.348 64.711 41 64.279 41c-.432 0-4.287-3.15-8.568-7-4.28-3.85-8.179-7-8.664-7-.484 0-5.142 4.612-10.35 10.25m162.899-3.082-7.779 7.168-3.659-1.31a659.571 659.571 0 0 1-4.842-1.749c-.88-.327-1.119 2.607-.93 11.391.243 11.266.407 12.095 3.445 17.332 1.754 3.025 4.047 8.2 5.096 11.5 1.048 3.3 3.096 8.664 4.552 11.92 1.455 3.256 3.523 9.331 4.595 13.5 1.366 5.316 1.824 6.31 1.532 3.33-.229-2.338-.048-4.023.401-3.746.9.557 16.968-21.907 17.035-23.815.023-.654.904.386 1.958 2.311 2.916 5.325 2.366 2.762-1-4.66-1.65-3.639-2.969-7.117-2.931-7.728.038-.612 3.638-4.211 8-7.998S233 54.396 233 53.99C233 52.7 209.669 27 208.497 27c-.617 0-4.623 3.226-8.901 7.168m-38.975.962c-1.992 2.326-3.621 4.519-3.621 4.872 0 .819 7.87 5.998 9.114 5.998.515 0 1.392-1.201 1.95-2.668 1.084-2.851.199-6.691-2.396-10.395-1.388-1.983-1.523-1.924-5.047 2.193M128 65.135v31.136l2.5 2.317c1.429 1.324 2.5 3.428 2.5 4.912s-1.071 3.588-2.5 4.912c-2.497 2.315-2.5 2.338-2.5 21.272v18.955l2.5 2.174c3.401 2.957 3.346 7.376-.125 10.107l-2.625 2.065.559 22.106c.458 18.102.843 22.42 2.125 23.837 1.981 2.188 2.011 5.458.066 7.072-1.148.953-1.5 3.562-1.5 11.122V237h2.531c1.393 0 2.72-.562 2.951-1.25.23-.687 1.136-29.15 2.014-63.25 1.682-65.388 1.828-67.073 6.912-79.658 3.709-9.182 8.348-16.134 17.373-26.034 11.679-12.811 11.529-12.344 5.633-17.532C158.191 42.04 139.344 34 130.606 34H128v31.135m8.174-12.821c-3.668 3.906-2.77 9.809 1.857 12.202 5.17 2.674 10.969-.929 10.969-6.815 0-6.716-8.302-10.202-12.826-5.387m35.034 5.725c-1.061 1.699-1.01 2.302.309 3.621 1.931 1.931 1.597 4.25-.826 5.733-1.448.887-2.098.717-3.264-.854-1.396-1.88-1.688-1.714-7.026 4-9.094 9.734-9.178 9.461 2.925 9.461h10.397l-.459-2.402c-.352-1.836.075-2.571 1.812-3.122 2.528-.803 5.175 1.707 4.274 4.053-.303.79 1.156 2.439 3.569 4.036 3.432 2.271 4.081 3.236 4.081 6.068V92h-7.406c-6.902 0-7.371.136-6.886 1.99.37 1.417-.117 2.226-1.694 2.809-2.153.797-2.114.906 1.421 4.01 5.186 4.553 7.367 4.265 4.101-.541-4.013-5.906-3.553-6.659 3.611-5.91 3.38.353 6.956.642 7.945.642 1.419 0 1.889 1.002 2.225 4.75.235 2.612.372.313.305-5.11l-.122-9.86-5.764-5.14c-3.17-2.827-5.757-5.521-5.75-5.986.008-.465.956-2.168 2.107-3.785 1.759-2.47 1.887-3.214.804-4.654-2.137-2.842-8.264-9.215-8.859-9.215-.306 0-1.13.917-1.83 2.039M145.638 93.5c-.49 1.279 1.098 1.5 10.786 1.5 9.177 0 11.473-.288 11.938-1.5.49-1.279-1.098-1.5-10.786-1.5-9.177 0-11.473.288-11.938 1.5m-2.753 6.303c-2.352 6.186-3.011 13.567-3.891 43.571-1.027 35.012-1.108 45.8-.332 43.876.643-1.593 5.56-1.628 7.138-.05.933.933 1.2-5.632 1.2-29.545V126.91l5.13-7.603c3.675-5.445 4.463-7.135 2.778-5.955-7.261 5.085-16.138-4.334-9.719-10.313 4.759-4.434 13.721-.579 12.576 5.41-.268 1.403-.378 2.551-.244 2.551.469 0 8.479-12.646 8.479-13.385 0-.41-4.991-.639-11.09-.508-10.764.23-11.118.309-12.025 2.696m22.7 4.707c-1.308 1.997-1.411 2.947-.502 4.646 1.831 3.419.564 11.303-2.533 15.772-1.511 2.181-5.178 5.638-8.149 7.684-4.439 3.058-5.401 4.237-5.401 6.622 0 2.535.283 2.818 2.25 2.247 6.892-2.003 16.035-10.707 18.694-17.796 2.123-5.661.699-21.685-1.927-21.685-.433 0-1.527 1.13-2.432 2.51m6.728.99c.296 1.1.832 3.463 1.192 5.25l.654 3.25h7.804c7.247 0 7.847-.16 8.407-2.25 1.495-5.578 1.265-5.75-7.67-5.75-5.273 0-8.779-.456-9.612-1.25-1.067-1.016-1.212-.876-.775.75m11.839 2.385c-2.229 1.412-.946 4.615 1.848 4.615 1.625 0 2.597-.645 2.835-1.88.311-1.618-1.246-3.589-2.835-3.589-.275 0-1.107.384-1.848.854m18.08 8.115c0 1.925.206 2.713.457 1.75.252-.963.252-2.537 0-3.5-.251-.963-.457-.175-.457 1.75m-103.217 2.576c-.009 1.936.842 3.881 2.299 5.25 3.399 3.192 3.985 2.663 1.745-1.576-3.501-6.626-4.027-7.103-4.044-3.674m77.708 4.199c-6.089 6.136-7.723 8.892-6.184 10.431.474.474 7.138-6.222 14.388-14.456 2.26-2.566 2.291-2.75.47-2.75-1.081 0-4.948 3.02-8.674 6.775m2.795 6.196c-.38.614.12 2.335 1.111 3.823 1.481 2.223 1.865 2.397 2.156.975.461-2.253-2.318-6.334-3.267-4.798m-13.745 5.741c-2.44 2.717-1.234 7.288 1.923 7.288 2.254 0 2.404-.275 1.769-3.25-1.134-5.307-1.849-6.09-3.692-4.038m-2.865 13.553c-2.769 3.445-3.332 6.735-1.153 6.735.702 0 8.245-9.387 8.245-10.26 0-.171-.902-.311-2.005-.311-1.122 0-3.362 1.688-5.087 3.836m-13.414.627c.119 2.015 1.996 4.915 6.089 9.41 4.88 5.357 6.232 6.328 7.716 5.536 1.601-.855 1.147-1.695-4.138-7.649-3.265-3.679-6.814-7.481-7.888-8.449-1.894-1.708-1.947-1.673-1.779 1.152m-91.463-.392c0 .55.436 1.675.969 2.5.533.825.969 1.05.969.5s-.436-1.675-.969-2.5c-.533-.825-.969-1.05-.969-.5m111.517 12.038c-1.116 2.672-3.659 4.888-11 9.585-5.251 3.36-9.548 6.763-9.548 7.561 0 1.587.254 1.43 14.5-8.957 8.499-6.198 11.638-10.076 8.98-11.096-1.007-.387-1.943.541-2.932 2.907m-2.809 8.862c-1.506 1.143-1.555 1.508-.339 2.517 1.448 1.202 1.812.931 2.914-2.167.738-2.072-.148-2.192-2.575-.35m-11.489 8.449c-3.722 2.688-6.25 5.249-6.25 6.332 0 1 .239 1.819.531 1.819.293 0 3.358-1.912 6.813-4.25 5.113-3.459 6.177-4.637 5.719-6.332-.528-1.951-.956-1.798-6.813 2.431m10.083-.076c-2.074 1.319-16.492 39.896-16.149 43.207.237 2.281 2.467-2.835 8.922-20.47 4.734-12.93 8.559-23.503 8.5-23.495-.058.009-.631.35-1.273.758m-20.546 16.867c-1.398 1.399-2.166 1.508-4.176.592-2.445-1.113-2.468-1.074-3.097 5.073-.348 3.407-.494 12.328-.324 19.823l.31 13.628 4.776-4.205 4.775-4.204-.275-16.211c-.261-15.307-.372-16.116-1.989-14.496" fill="#080f08" fill-rule="evenodd"/><path fill-opacity=".977" d="M120.711.95c-12.516.436-15.985.861-16.735 2.05-.52.825-.952 6.112-.961 11.75-.008 5.638-.41 10.25-.894 10.25-.483 0-4.479-3.6-8.879-8-4.4-4.4-8.673-8-9.497-8-2.056 0-8.278 12.161-10.458 20.439-1.658 6.298-2.057 6.896-5.517 8.274l-3.73 1.485-7.77-7.096c-4.274-3.902-8.527-7.097-9.452-7.099C45.243 25 24.75 46.399 21.33 51.619c-2.043 3.118-.828 4.992 8.028 12.381 3.973 3.315 6.436 6.096 6.2 7-.216.825-1.987 5.1-3.936 9.5-1.948 4.4-4.758 12.324-6.243 17.61l-2.701 9.609-9.156.602c-5.036.331-9.913.892-10.839 1.247C1.189 110.142 1 112.31 1 128.907c0 13.206.352 19.045 1.2 19.893.783.783 4.899 1.2 11.846 1.2h10.647l3.786 10.25c2.082 5.638 5.526 13.728 7.653 17.978 2.128 4.25 3.868 8.151 3.868 8.668 0 .517-2.077 3.34-4.616 6.272-7.486 8.648-8.512 10.69-6.909 13.748C30.609 210.987 52.473 232 54.574 232c1.035 0 5.289-3.387 9.454-7.527l7.571-7.528 7.451 3.434c4.097 1.888 10.888 4.488 15.09 5.777l7.639 2.344.602 5c.331 2.75.606 7.108.61 9.685.018 9.384.191 9.51 14.195 10.309 6.772.386 17.03.321 22.793-.146 12.291-.995 11.618-.172 12.574-15.365l.599-9.517 5.918-1.744c3.254-.959 10.135-3.553 15.29-5.764l9.373-4.02 7.302 7.531c4.47 4.609 8.108 7.531 9.378 7.531 2.413 0 27.587-24.926 27.587-27.316 0-.828-2.987-5.162-6.639-9.632l-6.639-8.126 5.051-10.713c2.778-5.892 6.274-14.2 7.769-18.463l2.717-7.75h10.799c8.484 0 11.136-.337 12.371-1.571 2.362-2.363 2.334-36.551-.032-38.515-.991-.822-5.227-1.489-11.079-1.745-5.826-.255-9.606-.849-9.816-1.542-.188-.62-1.522-5.377-2.965-10.571-1.442-5.194-4.408-13.253-6.589-17.908-2.181-4.655-3.849-8.525-3.707-8.601C222.193 67.976 235 55.253 235 53.891 235 51.181 211.142 25 208.672 25c-1.093 0-5.453 3.129-9.688 6.953l-7.701 6.954-5.02-1.606c-4.962-1.587-5.039-1.674-6.714-7.699-1.708-6.144-6.015-15.023-9.485-19.555l-1.879-2.453-5.593 3.713c-3.076 2.043-7.442 5.679-9.702 8.081-2.85 3.028-4.689 4.216-6 3.873-1.7-.445-1.89-1.536-1.89-10.842 0-9.208-.213-10.463-1.934-11.384-1.064-.569-2.977-.945-4.25-.835-1.274.11-9.421.448-18.105.75m-8.961 1.792-6.75.349v11.348c0 9.341-.275 11.452-1.555 11.944-1.373.527-1.344.885.25 3.075 2.313 3.177 3.152 3.19 2.55.042-.559-2.923-.158-3.023 3.834-.959 3.37 1.743 4.921 1.239 4.921-1.6 0-2.445.559-2.433 3.755.081l2.57 2.021 2.152-2.021c2.894-2.719 3.343-2.571 3.71 1.223.308 3.197.427 3.268 8.126 4.843l7.813 1.598 2.443-4.823 2.444-4.822-2.602-.653-2.602-.653.694-8.77c1.071-13.54 1.612-13.001-12.82-12.769-6.701.108-15.22.353-18.933.546m50.736 10.6c-6.426 4.349-11.741 10.255-14.978 16.643-2.283 4.504-2.383 5.126-.916 5.689 1.585.608 3.085-.849 17.171-16.674 3.055-3.433 3.145-3.461 4.666-1.5 6.127 7.904 8.845 20.33 6.668 30.485-1.112 5.183-1.062 5.442 1.579 8.199 2.391 2.496 2.841 2.644 3.645 1.207 1.201-2.146-.027-18.21-1.98-25.891-1.718-6.76-5.437-14.848-8.673-18.863L167.5 9.949l-5.014 3.393M78.704 19.75 74.5 28.5l-.275 16c-.152 8.8-.486 16.966-.744 18.147-.257 1.181-2.046 3.079-3.974 4.217C66.723 68.506 66 69.558 66 71.966c0 1.701-.879 3.913-2 5.034-1.1 1.1-2 2.453-2 3.007 0 .553-1.14 1.997-2.533 3.209-1.969 1.712-2.4 2.811-1.935 4.93.348 1.586-.013 3.894-.865 5.519-1.337 2.552-1.278 3.118.685 6.561 2.047 3.59 2.07 3.905.48 6.709-1.629 2.872-1.609 2.981.85 4.592 2.093 1.371 2.419 2.186 1.927 4.812-1.301 6.953-1.223 8.818.42 9.986 2.412 1.714 3.971 5.106 3.971 8.641 0 2.046.594 3.307 1.75 3.717 2.963 1.051 5.25 3.527 5.25 5.684 0 1.132 1.102 2.975 2.449 4.095 1.818 1.512 7.37 14.805 21.524 51.538 12.265 31.828 19.82 50.125 21.162 51.25 1.203 1.009 3.734 1.75 5.976 1.75H127v-7c0-6.677-.108-7-2.345-7-1.29 0-3.151-.891-4.136-1.979-1.851-2.046-2.684-19.139-5.042-103.521-.92-32.898-2.763-39.473-13.053-46.552-4.52-3.11-4.624-3.298-3.994-7.238.735-4.597-.479-6.022-3.994-4.686-2.945 1.12-3.325.57-2.72-3.94.487-3.633.37-3.817-2.818-4.454-3.53-.706-8.898-5.12-8.898-7.317C80 58.589 81.09 58 82.429 58h2.429l-3.08-9.183c-2.962-8.832-3.036-9.465-1.937-16.535.629-4.043 1.825-8.669 2.659-10.281 2.298-4.446 4.706-2.885 15.257 9.888 9.049 10.955 9.279 11.148 10.25 8.593 1.242-3.266 1.268-4.77.071-4.03-.507.313-4.083-3.637-7.947-8.777C94.048 19.582 85.507 11 83.536 11c-.346 0-2.52 3.938-4.832 8.75m79.993 7.947c-4.233 4.713-7.697 8.912-7.697 9.33 0 .417.787 1.065 1.75 1.439 1.304.507 3.037-.765 6.797-4.99 5.461-6.136 5.6-6.133 8.828.224 1.814 3.573 2.131 9.485.657 12.24-.73 1.364-.483 2.247 1.006 3.595 1.086.982 2.309 1.451 2.718 1.042.409-.409.742-5.094.739-10.41-.004-8.587-.309-10.246-2.731-14.846-1.499-2.849-3.096-5.408-3.548-5.687-.452-.28-4.285 3.349-8.519 8.063M83.318 24.76c-3.013 7.168-2.831 14.766.593 24.732C85.61 54.438 87 58.6 87 58.742c0 .142-1.125.258-2.5.258s-2.5.417-2.5.927C82 61.886 87.379 65 90.763 65h3.493l-.63 3.94-.63 3.939 3.752.311 3.752.31-.334 5.156c-.289 4.469-.061 5.242 1.706 5.803 1.121.356 4.012 2.843 6.424 5.526 7.466 8.304 7.433 8.03 9.832 80.515 2.253 68.066 2.194 67.5 7.027 67.5 1.781 0 1.845-3.449 1.845-99.351 0-97.91-.269-106.837-3.166-105.047-.534.33-.729 1.23-.434 1.999.712 1.854-.831 1.789-2.4-.101-1.928-2.323-3-1.787-3 1.5 0 3.651-.406 3.691-4.656.449L110 34.898v3.117c0 3.255-1.517 6.985-2.841 6.985-.424 0-4.922-5.132-9.996-11.405-5.074-6.273-9.911-11.668-10.749-11.99-1.073-.411-1.99.523-3.096 3.155M34.037 39.621c-9.943 10.948-12.113 13.866-11.408 15.335.479.997 4.134 4.631 8.121 8.075 3.988 3.444 7.25 6.66 7.25 7.148 0 .488-1.182 3.219-2.626 6.069-3.549 7.005-6.969 16.259-9.24 25.002-1.868 7.195-1.911 7.255-5.758 7.942-2.132.381-6.377.719-9.435.75-9.141.095-9.033-.154-8.716 20.063L2.5 147.5l11.859.5 11.859.5 3.363 9.5c1.849 5.225 5.587 13.996 8.307 19.491l4.944 9.991-5.666 6.825c-9.779 11.779-10.229 9.096 3.902 23.261C47.889 224.406 54.207 230 55.108 230c.901 0 4.886-3.419 8.855-7.598l7.217-7.598 7.926 3.623c8.53 3.899 23.71 9.09 24.442 8.358.246-.246-3.002-9.479-7.218-20.518-7.523-19.701-7.755-20.142-12.58-23.919-11.352-8.885-22.882-26.976-26.909-42.218-2.551-9.656-3.344-31.468-1.208-33.24 1.938-1.609 1.695-4.203-.677-7.219-1.943-2.47-1.963-2.756-.403-5.774.958-1.851 1.414-4.314 1.095-5.909-.412-2.056.06-3.305 1.902-5.035 1.348-1.266 2.45-3.015 2.45-3.887 0-.872.945-2.175 2.101-2.897 1.648-1.029 2.013-2.069 1.692-4.818-.375-3.208-.089-3.67 3.365-5.432 2.076-1.059 4.193-2.712 4.704-3.672.762-1.431.402-24.247-.381-24.247-.13 0-1.89.691-3.91 1.535l-3.673 1.534-7.199-6.607c-3.959-3.634-7.915-7.002-8.791-7.485-1.251-.69-4.219 2.015-13.871 12.644m167.626-7.857c-10.595 9.91-9.826 9.484-13.975 7.75-6.326-2.643-6.245-2.796-5.643 10.734.51 11.455.753 12.616 3.744 17.852 1.759 3.079 4.275 8.704 5.592 12.5a1621.4 1621.4 0 0 0 5.458 15.4c8.567 23.768 5.437 49.069-8.617 69.637-4.62 6.761-14.057 16.533-19.397 20.085-2.021 1.344-3.968 3.194-4.326 4.111-.359.917-5.155 14.042-10.66 29.167-5.504 15.125-10.645 28.497-11.423 29.715-1.966 3.074-1.846 3.287 1.834 3.27 5.239-.025 5.698-.829 6.311-11.042.857-14.274.399-13.434 8.683-15.937 3.991-1.205 11.219-4.027 16.062-6.27l8.806-4.078 7.716 7.671c4.244 4.219 8.163 7.671 8.709 7.671 1.198 0 25.463-24.174 25.463-25.368 0-.461-2.925-4.346-6.5-8.632s-6.5-8.252-6.5-8.814c0-.561 2.251-5.67 5.003-11.353 2.751-5.683 6.331-14.158 7.955-18.833l2.953-8.5 11.794-.5 11.795-.5.683-17c.655-16.323.601-17.07-1.361-18.75-1.418-1.214-3.77-1.753-7.683-1.761-3.101-.006-7.294-.285-9.318-.619-3.468-.574-3.748-.902-4.889-5.739-1.79-7.595-6.751-21.319-10.118-27.995l-2.958-5.864 5.759-5.136c3.168-2.825 6.8-5.956 8.072-6.959 1.272-1.002 2.313-2.577 2.313-3.5C233 52.665 209.7 26 208.378 26c-.303 0-3.325 2.594-6.715 5.764m-85.608-3.014c.031.413 1.286 1.718 2.789 2.901l2.733 2.151 1.8-3.136 1.8-3.136-2.089 1.89c-1.948 1.763-2.211 1.779-3.917.235-1.95-1.765-3.206-2.13-3.116-.905M108 31c0 .55.498 1 1.106 1 .608 0 1.991 1.125 3.073 2.5 2.077 2.64 4.831 3.357 4.806 1.25-.017-1.353-1.944-4.754-1.97-3.474-.008.426-1.343.089-2.965-.75-3.467-1.793-4.05-1.869-4.05-.526m51.849 4.655-3.589 4.655 5.034 3.388c5.336 3.591 6.022 3.444 7.354-1.571.638-2.403-2.824-11.127-4.415-11.127-.437 0-2.409 2.095-4.384 4.655M128 65.012c0 26.641.238 32.142 1.408 32.591.775.297 1.954 1.856 2.619 3.463 1.01 2.439.939 3.337-.431 5.428-.903 1.378-2.082 2.506-2.619 2.506-.603 0-.977 7.632-.977 19.955 0 19.951 0 19.954 2.5 22.454 1.375 1.375 2.5 3.442 2.5 4.593 0 1.152-1.125 3.136-2.5 4.41l-2.5 2.317v22.136c0 20.802.12 22.255 2 24.135 1.1 1.1 2 2.679 2 3.51 0 .83-.9 2.28-2 3.222-1.749 1.497-2 2.95-2 11.554v9.841l3.25-.314 3.25-.313.635-10.5c.349-5.775 1.195-34.125 1.879-63 1.199-50.638 1.329-52.8 3.668-60.951 3.571-12.443 9.608-23.291 17.837-32.049C166.132 61.896 171 55.716 171 54.152c0-4.069-21.985-16.802-33-19.113-3.025-.634-6.512-1.361-7.75-1.615l-2.25-.462v32.05m8.455-12.557c-3 2.999-3.132 6.415-.382 9.91C140.242 67.666 149 64.248 149 57.32c0-3.18-4.242-7.32-7.5-7.32-1.425 0-3.695 1.105-5.045 2.455m.745.745c-.66.66-1.2 2.675-1.2 4.477 0 2.43.676 3.72 2.615 4.99 2.342 1.535 2.891 1.56 5.25.242 3.205-1.79 4.082-6.82 1.618-9.284-1.906-1.905-6.564-2.144-8.283-.425m1.84 2.252c-1.914 2.306-.837 5.012 2.133 5.356 1.977.23 2.826-.23 3.324-1.798 1.226-3.864-2.946-6.584-5.457-3.558m31.523 2.762c-1.37 1.955-1.377 2.311-.057 3.049.822.46 1.494 1.728 1.494 2.818 0 2.677-2.959 3.695-4.523 1.557-1.096-1.499-2.028-.837-8.355 5.939-3.917 4.194-7.122 8.03-7.122 8.524 0 .495 5.191.899 11.535.899 11.265 0 11.51-.047 10.454-2.021-1.322-2.47-.526-3.979 2.101-3.979 2.304 0 3.65 2.66 2.119 4.191-.742.742.187 1.711 3.117 3.256 3.599 1.897 4.217 2.707 4.484 5.877l.311 3.676h-7.029c-5.464 0-6.915.298-6.515 1.34.283.737-.122 1.867-.899 2.512-1.097.91-1.685.844-2.631-.296-.671-.808-.92-1.953-.554-2.545.464-.751-2.907-.99-11.152-.793-10.314.246-11.859.504-12.151 2.027-.308 1.603.524 1.692 10.237 1.098l10.572-.647 4.718 4.652c2.595 2.559 5.52 4.652 6.501 4.652 2.322 0 2.26-.403-.735-4.803l-2.517-3.697 6.668-.299c8.748-.393 9.366-.078 9.366 4.768 0 2.373.473 4.031 1.151 4.031.832 0 .974-2.682.514-9.694l-.637-9.695-6.117-5.555-6.118-5.556 2.104-2.658c2.981-3.767 2.669-5.216-2.226-10.324-4.911-5.126-5.929-5.415-8.108-2.304m12.556 13.064c-1.269 2.371-1.137 2.734 2.011 5.547 1.853 1.655 3.525 2.853 3.717 2.662.191-.192-.714-2.688-2.011-5.548l-2.359-5.199-1.358 2.538M149 86l-2.041 4h19.021c17.452 0 19.019-.144 19.008-1.75-.007-.963-1.576-2.763-3.486-4-3.166-2.051-4.67-2.25-16.968-2.25h-13.493L149 86m5.38 10.782-11.119.281-1.76 5.719c-1.455 4.724-1.955 12.626-2.881 45.469-.616 21.863-.809 39.751-.429 39.75.38-.001.969-.451 1.309-1.001.933-1.51 4.158-1.2 5.929.571 1.428 1.429 1.571-.094 1.567-16.75-.002-10.076.198-24.089.443-31.139l.447-12.818 8.22-12.682c4.521-6.975 8.846-13.653 9.611-14.839.766-1.187 1.03-2.312.587-2.5-.442-.189-5.808-.216-11.924-.061m23.62.814c0 .327.931 1.902 2.068 3.5 1.478 2.075 2.905 2.904 5 2.904 2.684 0 2.932-.296 2.932-3.5V97h-5c-2.75 0-5 .268-5 .596M128.5 101c.34.55 1.068 1 1.618 1s.722-.45.382-1c-.34-.55-1.068-1-1.618-1s-.722.45-.382 1m17.066 2.343c-1.411 1.411-2.566 3.487-2.566 4.612 0 3.12 3.536 6.045 7.309 6.045 9.153 0 10.021-10.868 1.007-12.609-2.568-.496-3.68-.118-5.75 1.952m19.874.919c-1.791 2.815-1.891 3.564-.765 5.738 1.772 3.42 1.615 6.767-.541 11.5-1.908 4.19-8.513 10.804-12.688 12.706-1.986.905-2.446 1.848-2.446 5.013v3.898l6.071-3.235C165.433 134.359 172 124.512 172 114.5c0-3.686-2.758-13.506-3.789-13.488-.391.007-1.638 1.47-2.771 3.25m-18.869.309c-2.087 2.088-1.987 4.743.258 6.774 2.282 2.066 4.103 2.091 6.948.098 3.995-2.798 1.804-8.443-3.277-8.443-1.296 0-3.064.707-3.929 1.571m25.852 3.929 1.007 5.5h16.476l1.01-3.656c.555-2.011.774-4.036.487-4.5-.286-.464-4.293-.844-8.903-.844s-8.66-.45-9-1c-1.536-2.485-2.001-.543-1.077 4.5m-43.423-3c-.718.865-.815 1.5-.229 1.5.558 0 1.274-.675 1.591-1.5.316-.825.419-1.5.229-1.5-.19 0-.906.675-1.591 1.5m18.726.251c-2.082 2.3-.515 5.249 2.789 5.249 3.397 0 4.98-3.242 2.624-5.374-2.293-2.076-3.446-2.049-5.413.125m35.75 3.288c-1.032 1.669 1.844 4.159 3.896 3.372.949-.364 1.587-1.394 1.417-2.287-.368-1.931-4.295-2.733-5.313-1.085m-23.065 1.671c-.734 1.163-.763 2.546-.092 4.324 1.982 5.251-.825 10.348-6.832 12.403-2.713.928-4.089 2.035-4.307 3.464-.423 2.782.563 2.616 5.171-.871 7.262-5.497 10.753-12.495 9.24-18.523-.736-2.935-1.682-3.172-3.18-.797m-62.744 2.957c-1.428 1.427-.602 8.147 1.299 10.563 2.049 2.604 7.16 5.228 8.993 4.617 1.14-.38-7.466-15.847-8.817-15.847-.445 0-1.109.3-1.475.667m.333 3.786c0 2.618 2.261 6.488 4.741 8.113 1.338.877 2.59 1.436 2.783 1.244.192-.193-1.009-2.704-2.67-5.58-2.977-5.157-4.854-6.617-4.854-3.777m74.81 2.047c-.225 1.925-.121 3.5.23 3.5s2.072-1.575 3.824-3.5l3.185-3.5h-3.415c-3.159 0-3.446.263-3.824 3.5m2.94 3.25c-5.387 5.431-6.581 7.19-6.106 9 .324 1.238.905 2.25 1.291 2.25.386 0 4.416-4.05 8.955-9 7.914-8.629 8.136-9 5.405-9-2.189 0-4.399 1.563-9.545 6.75m9.417-.702c-3.098 3.605-3.227 4.029-1.831 6.022l1.502 2.144 1.461-2.857c1.39-2.719 3.227-9.451 2.53-9.272-.181.046-1.829 1.83-3.662 3.963m-6.54 6.746c-.27.437.45 2.279 1.599 4.094 1.784 2.818 2.224 3.059 3.011 1.652 1.523-2.721-2.997-8.355-4.61-5.746m-12.951 5.011c-1.684 1.862-2.138 4.827-1.138 7.434.345.9 1.555 1.254 3.37.988 2.785-.409 2.815-.484 1.824-4.571-1.314-5.417-2.026-6.093-4.056-3.851m8.116.945c-3.579 3.811-2.361 7.25 2.569 7.25 4.345 0 5.347-2.27 2.959-6.705-.976-1.812-2.038-3.295-2.36-3.295-.322 0-1.748 1.238-3.168 2.75m-15.05 5.164c-4.003 2.567-3.995 2.663.203 2.263 3.184-.304 3.736-.681 3.32-2.271-.274-1.048-.558-1.873-.632-1.833-.073.04-1.374.869-2.891 1.841m-1.569 4.999-5.327.587 2.903 2.771c2.742 2.616 2.985 2.672 4.372 1 2.378-2.868 4.152-5.283 3.751-5.108-.204.09-2.769.427-5.699.75m7.322.484c-.547.768-1.992 2.729-3.211 4.356-1.952 2.607-2.048 3.184-.811 4.853 1.588 2.144.998 2.64 7.554-6.356l3.097-4.25h-2.817c-1.549 0-3.265.629-3.812 1.397m9.954 2.071c-1.811 4.334-1.823 5.532-.058 5.532.766 0 2.116-1.809 3-4.02 1.973-4.93 1.974-4.98.058-4.98-.853 0-2.203 1.561-3 3.468m-25.449.706c0 3.033.982 4.65 6.25 10.294 4.691 5.025 6.687 6.524 8 6.007.963-.379 1.728-1.203 1.701-1.832-.027-.629-3.627-4.951-8-9.605L149 144.576v3.598m19.25 2.921c-4.675 6.503-4.882 7.136-2.879 8.798 1.111.922 1.962-.317 4.499-6.545 1.721-4.225 3.017-7.791 2.879-7.923-.137-.133-2.161 2.419-4.499 5.67M128 152.878c0 .482.675 1.437 1.5 2.122 1.628 1.351 1.832 1.028.893-1.418-.643-1.675-2.393-2.19-2.393-.704m21.039 10.898-.039 9.275 2.75-1.478c1.512-.813 3.951-2.294 5.418-3.292l2.668-1.813-5.379-5.984-5.379-5.984-.039 9.276m20.34-4.059c-1.394 3.548-2.968 4.975-10.992 9.962-7.296 4.534-9.369 6.318-9.377 8.067-.009 1.97 1.346 1.249 11.053-5.881 6.084-4.469 11.778-9.22 12.654-10.556 1.461-2.229 1.456-2.565-.06-4.081-1.536-1.535-1.766-1.36-3.278 2.489m-40.507-.967c-1.243 1.586-1.208 1.621.378.378 1.666-1.307 2.195-2.128 1.372-2.128-.207 0-.995.787-1.75 1.75m38.065 10.23c-2.558 2.188-2.99 2.949-1.687 2.979 2.231.052 2.352 3.873.149 4.718-1.9.729-3.457-1.362-2.627-3.526.584-1.52-10.77 5.937-12.844 8.435-.595.717-.934 2.256-.755 3.419.304 1.963.792 1.79 6.827-2.422 3.575-2.495 6.65-4.098 6.832-3.562.183.535-2.854 9.107-6.75 19.047-5.617 14.334-7.074 19.146-7.043 23.253.036 4.776.892 2.851 11.002-24.736 6.03-16.453 10.821-30.056 10.648-30.229-.173-.173-1.861 1.008-3.752 2.624m-12.651 16.936-5.214 3.584-.001 10.5-.001 10.5 5.426-13.956c2.984-7.675 5.331-14.013 5.215-14.084-.116-.071-2.557 1.484-5.425 3.456m-17.512 27.162c-.276 11.782-.427 21.521-.335 21.641.091.121 2.505-1.827 5.363-4.327l5.198-4.547-.03-17.173c-.022-12.155-.329-16.661-1.05-15.422-1.295 2.222-5.819 2.27-7.422.078-.983-1.344-1.321 2.532-1.724 19.75M104.463 237c.995 14.657 1.313 15.339 6.66 14.317l2.496-.477-4.413-11.17c-2.427-6.144-4.632-11.395-4.9-11.67-.268-.275-.197 3.775.157 9m35.94-3c-3.987 3.489-6.574 5-8.559 5H129v14h3.826c2.676 0 4.458-.676 5.932-2.25 2.359-2.521 9.66-21.75 8.257-21.75-.494 0-3.47 2.25-6.612 5" fill="#080f08" fill-rule="evenodd"/></svg>